<svg width="101" height="31" viewBox="0 0 101 31" fill="none" xmlns="http://www.w3.org/2000/svg">
<path d="M33.4872 8.26953C33.8779 8.26953 34.1942 8.38093 34.436 8.58515C34.6779 8.78937 34.8453 9.08642 34.9383 9.45773H34.9941C35.1057 9.45773 35.2918 9.38347 35.5336 9.25351C35.7755 9.12355 35.9429 9.03072 36.0359 8.99359C36.7987 8.71511 37.5614 8.52945 38.3242 8.43662C39.1055 8.32523 39.8869 8.26953 40.7055 8.26953C41.4124 8.26953 42.1565 8.32523 42.9193 8.41805C43.6821 8.51088 44.4262 8.69654 45.1331 8.9379C45.8401 9.19782 46.5098 9.532 47.1051 9.97757C47.7005 10.4231 48.2027 10.9801 48.612 11.667C48.7609 11.9455 48.9097 12.2426 49.0399 12.6139C49.1701 12.9666 49.2446 13.3008 49.2446 13.6164V24.3103C49.2446 24.6816 49.0771 24.9601 48.7609 25.1828C48.4446 25.3871 48.1283 25.4985 47.8121 25.4985C47.6818 25.4985 47.533 25.4613 47.3656 25.4056C47.1982 25.3499 47.0493 25.2571 46.9005 25.1643C46.7517 25.0529 46.64 24.9415 46.5284 24.8115C46.4354 24.6816 46.3796 24.5516 46.3796 24.3845V13.8949C46.3796 13.8578 46.3424 13.7278 46.2494 13.5236C46.1563 13.3194 46.1005 13.1894 46.0633 13.1337C45.8029 12.7067 45.468 12.354 45.0401 12.0941C44.6122 11.8156 44.1471 11.6299 43.6448 11.4814C43.1425 11.3514 42.6216 11.2586 42.1007 11.2029C41.5798 11.1472 41.0961 11.1286 40.6496 11.1286C40.1846 11.1286 39.7009 11.1472 39.1986 11.1843C38.6963 11.2215 38.2126 11.3143 37.7289 11.4443C37.2638 11.5742 36.7987 11.7599 36.3708 12.0012C35.9429 12.2426 35.5894 12.5582 35.2918 12.9666C35.236 13.0595 35.1429 13.208 35.0499 13.4122C34.9383 13.6164 34.8825 13.7278 34.8825 13.7835V24.236C34.8825 24.5887 34.7151 24.8858 34.3802 25.1271C34.0453 25.3685 33.7105 25.4985 33.4128 25.4985C33.1338 25.4985 32.8547 25.4056 32.5198 25.2014C32.2036 25.0158 32.0361 24.7558 32.0361 24.4402V9.32778C32.0361 8.99359 32.2036 8.75224 32.5198 8.56658C32.9291 8.36236 33.2268 8.26953 33.4872 8.26953Z" fill="#00A2DC"/>
<path d="M51.6069 16.8645C51.6069 15.5834 51.8116 14.4324 52.2395 13.3741C52.6673 12.3159 53.2627 11.4062 54.0254 10.645C54.7882 9.88378 55.6998 9.28968 56.7602 8.88123C57.8206 8.47279 58.974 8.25 60.2205 8.25C61.2065 8.25 62.1738 8.34283 63.0854 8.50992C64.0156 8.67701 64.9086 8.99262 65.783 9.4382H65.876C65.9876 9.10402 66.1736 8.82553 66.4155 8.60275C66.6573 8.37996 66.955 8.25 67.3271 8.25C67.6433 8.25 67.9596 8.3614 68.2759 8.56562C68.5921 8.76984 68.7596 9.06689 68.7596 9.4382V24.2722C68.7596 24.6435 68.5921 24.922 68.2759 25.1447C67.9596 25.349 67.6433 25.4604 67.3271 25.4604C66.955 25.4604 66.6573 25.349 66.4155 25.1076C66.1736 24.8848 65.9876 24.5878 65.876 24.2722H65.783C64.8528 24.7177 63.9226 25.0334 63.011 25.2004C62.0994 25.3675 61.132 25.4604 60.1274 25.4604C58.8624 25.4604 57.709 25.2561 56.6671 24.8291C55.6253 24.4021 54.7138 23.808 53.9696 23.0468C53.2069 22.2856 52.6301 21.3759 52.2209 20.3177C51.8116 19.278 51.6069 18.1269 51.6069 16.8645ZM54.4719 16.8459C54.4719 17.6999 54.6207 18.4797 54.8998 19.1852C55.1788 19.8907 55.5695 20.5033 56.0718 21.0046C56.5741 21.5244 57.1694 21.9143 57.8764 22.1928C58.5647 22.4713 59.3461 22.6198 60.2018 22.6198C60.6297 22.6198 61.1134 22.6012 61.6343 22.5456C62.1738 22.4899 62.6761 22.397 63.1784 22.2671C63.6807 22.1371 64.1458 21.9329 64.5737 21.673C65.0016 21.413 65.3365 21.0603 65.5969 20.6147C65.6527 20.5219 65.7085 20.3919 65.783 20.2248C65.8574 20.0578 65.876 19.9278 65.876 19.7978V13.9497C65.876 13.8383 65.8388 13.6897 65.783 13.5226C65.7085 13.3556 65.6527 13.2256 65.5969 13.1328C65.3365 12.7058 65.0202 12.3716 64.5923 12.1117C64.183 11.8517 63.7179 11.6475 63.2343 11.499C62.732 11.3505 62.2297 11.2576 61.7088 11.2019C61.1878 11.1462 60.7041 11.1277 60.2577 11.1277C59.4019 11.1277 58.6205 11.2576 57.9136 11.5361C57.2066 11.8146 56.5927 12.1859 56.0904 12.6872C55.5881 13.1885 55.1975 13.7826 54.9184 14.4881C54.6207 15.1936 54.4719 15.9733 54.4719 16.8459Z" fill="#00A2DC"/>
<path d="M72.443 5.53906C72.7407 5.53906 73.0384 5.61332 73.3732 5.76185C73.7081 5.91037 73.8755 6.18886 73.8755 6.57874V24.3646C73.8755 24.6988 73.7081 24.9587 73.3732 25.1629C73.0384 25.3672 72.7407 25.46 72.443 25.46C72.3128 25.46 72.164 25.4229 71.9965 25.3672C71.8291 25.3115 71.6803 25.2372 71.5501 25.1444C71.4198 25.0516 71.3082 24.9402 71.2152 24.7916C71.1222 24.6617 71.085 24.5132 71.085 24.3646V6.57874C71.085 6.24456 71.2524 6.0032 71.5687 5.81755C71.8849 5.63189 72.1826 5.53906 72.443 5.53906Z" fill="#00A2DC"/>
<path d="M76.1826 16.8645C76.1826 15.5834 76.3873 14.4324 76.8151 13.3741C77.243 12.3159 77.8383 11.4062 78.6011 10.645C79.3639 9.88378 80.2754 9.28968 81.3358 8.88123C82.3963 8.47279 83.5497 8.25 84.7961 8.25C85.7821 8.25 86.7495 8.34283 87.6611 8.50992C88.5913 8.67701 89.4843 8.99262 90.3586 9.4382H90.4517C90.5633 9.10402 90.7493 8.82553 90.9912 8.60275C91.233 8.37996 91.5307 8.25 91.9028 8.25C92.219 8.25 92.5353 8.3614 92.8515 8.56562C93.1678 8.76984 93.3352 9.06689 93.3352 9.4382V24.2722C93.3352 24.6435 93.1678 24.922 92.8515 25.1447C92.5353 25.349 92.219 25.4604 91.9028 25.4604C91.5307 25.4604 91.233 25.349 90.9912 25.1076C90.7493 24.8848 90.5633 24.5878 90.4517 24.2722H90.3586C89.4285 24.7177 88.4983 25.0334 87.5867 25.2004C86.6751 25.3675 85.7077 25.4604 84.7031 25.4604C83.4381 25.4604 82.2846 25.2561 81.2428 24.8291C80.201 24.4021 79.2894 23.808 78.5453 23.0468C77.7825 22.2856 77.2058 21.3759 76.7965 20.3177C76.4059 19.278 76.1826 18.1269 76.1826 16.8645ZM79.0662 16.8459C79.0662 17.6999 79.215 18.4797 79.4941 19.1852C79.7731 19.8907 80.1638 20.5033 80.6661 21.0046C81.1684 21.5244 81.7637 21.9143 82.4707 22.1928C83.159 22.4713 83.9404 22.6198 84.7961 22.6198C85.224 22.6198 85.7077 22.6012 86.2286 22.5456C86.7681 22.4899 87.2704 22.397 87.7727 22.2671C88.275 22.1371 88.7401 21.9329 89.168 21.673C89.5959 21.413 89.9308 21.0603 90.1912 20.6147C90.247 20.5219 90.3028 20.3919 90.3772 20.2248C90.4517 20.0578 90.4703 19.9278 90.4703 19.7978V13.9497C90.4703 13.8383 90.4331 13.6897 90.3772 13.5226C90.3028 13.3556 90.247 13.2256 90.1912 13.1328C89.9308 12.7058 89.6145 12.3716 89.1866 12.1117C88.7773 11.8517 88.3122 11.6475 87.8285 11.499C87.3262 11.3505 86.8239 11.2576 86.303 11.2019C85.7821 11.1462 85.2984 11.1277 84.8519 11.1277C83.9962 11.1277 83.2148 11.2576 82.5079 11.5361C81.8009 11.8146 81.187 12.1859 80.6847 12.6872C80.1824 13.1885 79.7917 13.7826 79.5127 14.4881C79.1964 15.1936 79.0662 15.9733 79.0662 16.8459Z" fill="#00A2DC"/>
<path d="M8.52103 15.0267C8.57684 14.9339 8.66986 14.8596 8.81869 14.8225C9.07914 14.7668 9.19076 14.544 9.24657 14.3212C9.32099 13.9685 9.52563 13.69 9.74887 13.4486C9.74887 13.4301 9.76748 13.4301 9.78608 13.4301C8.66986 10.8866 8.70707 11.4436 8.29779 8.67728C8.13035 7.54477 7.96292 6.35657 7.42341 5.37259C6.04673 2.81053 4.76308 2.92192 4.42821 3.07045C4.18636 3.18184 4.01893 3.83164 4.07474 4.18439C4.94911 11.5364 7.14436 12.9845 8.52103 15.0267Z" fill="#00A2DC"/>
<path d="M12.093 12.0749C12.1488 12.2605 12.1861 12.4462 12.2047 12.6504C12.6139 12.5947 13.0046 12.6133 13.4139 12.6133C13.5441 12.6133 13.5813 12.669 13.5627 12.7804C13.5441 12.9846 13.5255 13.1888 13.4883 13.393C13.4697 13.523 13.5441 13.5787 13.6371 13.6158C13.8604 13.6715 14.065 13.7272 14.2883 13.7829C14.1022 13.1145 13.8976 12.1863 13.693 10.9609C13.4511 9.6799 13.4511 7.02501 13.1348 4.1659C12.8372 -1.10675 7.31189 -4.00299 12.093 12.0749Z" fill="#00A2DC"/>
<path d="M16.4459 13.077C16.4087 13.1884 16.3157 13.5226 16.2041 13.8939C16.2413 13.9125 16.2971 13.9496 16.3343 13.9682C16.5948 14.1352 16.8924 14.1352 17.1901 14.1352C17.4319 14.1167 17.6738 14.0795 17.9156 14.0795C17.9528 14.0795 18.0273 14.1352 18.0459 14.1909C18.1203 14.4137 18.1761 14.6551 18.2505 14.8964C18.2505 14.9336 18.2877 14.9707 18.2691 14.9893C18.1575 15.1192 18.2505 15.2306 18.3063 15.3234C18.4365 15.5834 18.511 15.899 18.7528 16.1032C18.8272 16.1775 18.8458 16.326 18.8458 16.4374C18.8458 16.6602 18.9016 16.8458 19.0505 17.0315C19.1621 17.1429 19.2179 17.31 19.3109 17.4399C19.3481 17.4956 19.3667 17.5513 19.4039 17.5885C18.7714 15.9175 18.7342 14.1538 18.883 12.4272C20.6876 0.693714 15.9436 4.4811 16.5762 7.86005C17.0041 10.1251 17.2273 10.812 16.4459 13.077Z" fill="#00A2DC"/>
<path d="M28.2223 16.6984C28.1851 15.4917 27.3851 14.9533 26.3433 15.5288C25.6736 15.9001 25.0969 16.5128 24.576 17.0883C24.1109 17.6267 23.8132 18.5179 23.4411 18.8521C22.7528 19.4647 21.9714 19.669 21.2645 19.5204C21.1157 19.7989 20.911 20.0774 20.6506 20.3002C20.6134 20.3187 20.5948 20.3559 20.5576 20.3744C20.0925 20.5415 19.8506 20.9685 19.5344 21.2842C19.3483 21.4513 19.2739 21.674 19.2553 21.8968C19.2367 22.1753 19.2925 22.4352 19.3297 22.7137C19.3855 23.0479 19.4599 23.3635 19.4971 23.6977C19.5344 23.9205 19.4041 24.0876 19.2367 24.199C19.0134 24.3475 18.7902 24.4589 18.5856 24.6074C18.3437 24.7745 18.3065 24.9045 18.4181 25.183C18.4553 25.3129 18.4925 25.4429 18.5111 25.5728C18.5484 25.7585 18.4553 25.907 18.2879 25.9627C17.9902 26.0741 17.9158 26.2783 17.9344 26.5568C17.953 26.7239 17.86 26.8724 17.7112 26.9653C17.6182 27.0395 17.5438 27.1323 17.4693 27.2252C17.4321 27.2809 17.3949 27.3366 17.3391 27.3737C17.1531 27.5594 16.9856 27.745 16.781 27.8935C16.6136 28.0049 16.4275 28.0978 16.2229 28.1163C15.9252 28.1535 15.6276 28.1163 15.3485 28.2463C15.1811 28.3205 15.0137 28.2463 14.9392 28.0606C14.8834 27.9121 14.8462 27.7636 14.809 27.6151C14.7346 27.3923 14.6788 27.1695 14.5858 26.9653C14.4183 26.5568 14.2509 26.1669 14.0649 25.777C14.0463 25.7399 14.0277 25.7214 14.0463 25.6842C14.0649 25.3315 13.8602 25.0716 13.7114 24.7745C13.4695 24.3289 13.4881 23.8834 13.7672 23.4378C13.8974 23.215 13.9718 22.9922 13.8974 22.7323C13.8044 22.4538 13.7486 22.1753 13.6742 21.8968C13.6556 21.8411 13.6184 21.7854 13.5812 21.7483C13.3951 21.5255 13.2277 21.3027 13.0417 21.0799C12.9672 20.9871 12.9672 20.8943 13.0231 20.7829C13.0975 20.6344 13.1533 20.4673 13.2091 20.3002C13.2463 20.1517 13.1719 20.0403 13.0044 20.0217C12.8556 19.9846 12.7068 19.9846 12.558 19.9846C12.4091 19.9846 12.2975 19.9289 12.2603 19.7803C12.2045 19.6133 12.0743 19.539 11.9254 19.5576C11.665 19.5761 11.4231 19.6504 11.1627 19.6875C10.958 19.7246 10.7534 19.7246 10.5488 19.7618C10.3999 19.7803 10.2325 19.7989 10.1023 19.8732C9.84182 20.0217 9.61857 20.0031 9.37673 19.8175C9.13488 19.6133 8.87443 19.4276 8.61397 19.2234C8.59537 19.2048 8.57677 19.1677 8.57677 19.1491C8.61398 18.982 8.48375 18.8892 8.39073 18.7778C8.29771 18.685 8.2419 18.555 8.16748 18.4436C8.14888 18.4065 8.11167 18.3694 8.07447 18.3694C7.94424 18.3508 7.88843 18.258 7.86983 18.1466C7.79541 17.8866 7.721 17.6267 7.85122 17.3482C7.85122 17.3297 7.86983 17.3111 7.86983 17.3111C7.62798 17.274 7.38613 17.1811 7.14428 16.9769C6.41874 16.3643 6.17689 16.0672 4.61418 13.1524C2.7352 7.6941 -2.17618 10.8317 1.09807 12.9853C2.02826 13.8765 3.01426 14.6934 3.92584 15.6031C6.60477 18.2951 6.69779 18.9263 8.65118 22.1567C9.80461 24.069 10.958 26.0184 12.2975 27.7821C13.0789 28.8218 14.1765 29.713 15.2927 30.3813C17.4507 31.6809 19.925 30.864 21.0413 28.599C21.4691 27.745 21.7482 26.8167 22.0086 25.8884C22.697 23.3635 23.1063 22.5838 25.2457 21.0799C25.9526 20.5787 26.641 20.0031 27.2549 19.3905C27.999 18.685 28.2595 17.7196 28.2223 16.6984ZM21.4319 23.9948C21.2273 24.6074 21.0226 25.2201 20.8366 25.8142C20.7622 26.0555 20.6692 26.1298 20.4645 26.1298C20.2785 26.1298 20.1669 26.037 20.0925 25.8142C20.0739 25.7399 20.0553 25.6657 20.0367 25.61C19.925 25.4057 19.8692 25.2015 20.1111 25.0159C20.1669 24.9602 20.1669 24.8116 20.1483 24.7188C20.0553 24.3289 20.1297 24.1247 20.5017 23.9576C20.7064 23.8648 20.8552 23.7348 20.9482 23.512C20.9854 23.4006 21.0971 23.3264 21.1715 23.2336C21.2459 23.3264 21.3575 23.4006 21.4133 23.512C21.4691 23.6234 21.4877 23.7348 21.525 23.8277C21.4505 23.9205 21.4505 23.9576 21.4319 23.9948Z" fill="#00A2DC"/>
<path d="M101 11.2387C101 11.5729 100.944 11.8885 100.814 12.167C100.684 12.4641 100.516 12.7054 100.293 12.9282C100.07 13.151 99.8279 13.3181 99.5302 13.4295C99.2325 13.5594 98.9349 13.6151 98.6 13.6151C98.2652 13.6151 97.9489 13.5594 97.6698 13.4295C97.3722 13.2995 97.1303 13.1324 96.9071 12.9282C96.6838 12.7054 96.5164 12.4641 96.4048 12.167C96.2746 11.8699 96.2188 11.5729 96.2188 11.2387C96.2188 10.9045 96.2746 10.5889 96.4048 10.2919C96.535 9.99482 96.7024 9.75346 96.9071 9.53068C97.1303 9.30789 97.3722 9.1408 97.6698 9.02941C97.9675 8.89945 98.2652 8.84375 98.6 8.84375C98.9349 8.84375 99.2511 8.89945 99.5302 9.02941C99.8279 9.15937 100.07 9.32645 100.293 9.53068C100.516 9.75346 100.684 9.99482 100.814 10.2919C100.944 10.6075 101 10.9045 101 11.2387ZM100.628 11.2387C100.628 10.9602 100.572 10.7003 100.46 10.4404C100.349 10.199 100.2 9.97626 100.033 9.7906C99.8465 9.60494 99.6418 9.47498 99.4 9.36359C99.1581 9.25219 98.8977 9.1965 98.6186 9.1965C98.3396 9.1965 98.0791 9.25219 97.8373 9.36359C97.5954 9.47498 97.3722 9.62351 97.1861 9.7906C97.0001 9.97626 96.8513 10.1805 96.7397 10.4404C96.628 10.6818 96.5722 10.9602 96.5722 11.2387C96.5722 11.5172 96.628 11.7771 96.7397 12.0185C96.8513 12.2598 97.0001 12.4826 97.1861 12.6497C97.3722 12.8354 97.5768 12.9653 97.8373 13.0767C98.0791 13.1881 98.3396 13.2252 98.6186 13.2252C98.8977 13.2252 99.1581 13.1695 99.4 13.0767C99.6418 12.9653 99.8465 12.8354 100.033 12.6497C100.219 12.4641 100.349 12.2598 100.46 12.0185C100.572 11.7771 100.628 11.5172 100.628 11.2387ZM99.4 12.0927L98.8791 11.5729H98.321V11.2387H98.9907C99.2325 11.2387 99.3628 11.1088 99.3628 10.8674C99.3628 10.756 99.3256 10.6632 99.2697 10.6075C99.1953 10.5332 99.1023 10.5147 98.9907 10.5147H97.8745V12.0927H97.5024V10.1619H98.9907C99.2325 10.1619 99.4186 10.2176 99.5302 10.3476C99.6604 10.4775 99.7162 10.6446 99.7162 10.8674C99.7162 11.0345 99.679 11.1645 99.6046 11.2759C99.5302 11.3872 99.4372 11.4615 99.2884 11.5172L99.9023 12.0927H99.4Z" fill="#00A2DC"/>
</svg>
